<svg width="49" height="43" viewBox="0 0 49 43" fill="none" xmlns="http://www.w3.org/2000/svg">
<path d="M24.5005 28.666L36.3698 42.9993H48.9997L24.5005 28.666Z" fill="#919191"/>
<path d="M24.5002 28.666L24.453 28.694L0.000976562 42.9993H12.6309L24.5002 28.666Z" fill="#727272"/>
<path d="M24.5 28.667L29.6485 43.0003H36.3693L24.5 28.667Z" fill="#828282"/>
<path d="M24.5 43.0003H29.6485L24.5 28.667V43.0003Z" fill="#828282"/>
<path d="M19.3516 43.0003H24.5001V28.667L19.3516 43.0003Z" fill="#828282"/>
<path d="M24.5001 28.667L12.6309 43.0003H19.3516L24.5001 28.667Z" fill="#828282"/>
<path d="M24.5005 28.666L24.5344 28.6859L49.0002 42.9988L42.6847 31.9153L24.5005 28.666Z" fill="#D7D7D7"/>
<path d="M24.5005 28.6664L42.6847 31.9157L39.3244 26.0176L24.5005 28.6664Z" fill="#E6E6E6"/>
<path d="M24.5005 28.6667L39.3244 26.0178L36.7506 21.5L24.5005 28.6667Z" fill="#E6E6E6"/>
<path d="M36.7506 21.5002L34.1764 16.9824L24.5005 28.6669L36.7506 21.5002Z" fill="#E6E6E6"/>
<path d="M24.5005 28.6666L34.1764 16.9821L30.816 11.084L24.5005 28.6666Z" fill="#E6E6E6"/>
<path d="M24.5005 28.6661L30.816 11.0835L24.5005 0V28.6661Z" fill="#F6F6F6"/>
<path d="M0 42.9996L0.00106925 42.999H0V42.9996Z" fill="white"/>
<path d="M24.5001 28.6661V0L18.1846 11.0835L24.5001 28.6661Z" fill="#242424"/>
<path d="M24.5002 28.666L6.31599 31.9153L0.000488281 42.9988L24.5002 28.666Z" fill="#434343"/>
<path d="M24.4996 28.6656L18.1841 11.083L14.8237 16.9811L24.4996 28.6656Z" fill="#333333"/>
<path d="M14.8238 16.9814L12.2495 21.4992L24.4996 28.6659L14.8238 16.9814Z" fill="#333333"/>
<path d="M24.4996 28.6657L12.2495 21.499L9.67578 26.0168L24.4996 28.6657Z" fill="#333333"/>
<path d="M24.4997 28.6655L9.67581 26.0166L6.31543 31.9147L24.4997 28.6655Z" fill="#333333"/>
<g style="mix-blend-mode:color">
<mask id="mask0_41_1957" style="mask-type:alpha" maskUnits="userSpaceOnUse" x="0" y="-1" width="49" height="44">
<g style="mix-blend-mode:difference">
<path d="M36.3691 42.999H12.6309L24.5 28.665L36.3691 42.999ZM12.6309 42.998H0.000976562L24.4531 28.6934L24.5 28.665L12.6309 42.998ZM0.000976562 42.998L6.31641 31.9141L24.5 28.665L0.000976562 42.998ZM48.999 42.998H36.3691L24.5 28.665L48.999 42.998ZM30.8154 11.082L34.1758 16.9805L39.3242 26.0156L42.6846 31.9141L49 42.998L24.5342 28.6846L24.5 28.665L6.31543 31.9141L9.67578 26.0156L14.8242 16.9805L18.1846 11.082L24.5 -0.000976562L30.8154 11.082Z" fill="white"/>
</g>
</mask>
<g mask="url(#mask0_41_1957)">
<path d="M0 0H49V43H0V0Z" fill="#EC4E0B"/>
</g>
</g>
</svg>
